<?xml version="1.0" standalone="no"?>
<!DOCTYPE svg PUBLIC "-//W3C//DTD SVG 20010904//EN"
 "http://www.w3.org/TR/2001/REC-SVG-20010904/DTD/svg10.dtd">
<svg version="1.0" xmlns="http://www.w3.org/2000/svg"
 width="16.000000pt" height="16.000000pt" viewBox="0 0 16.000000 16.000000"
 preserveAspectRatio="xMidYMid meet">
<metadata>
Created by potrace 1.11, written by Peter Selinger 2001-2013
</metadata>
<g transform="translate(0.000000,16.000000) scale(0.003478,-0.003478)"
fill="#000000" stroke="none">
<path d="M0 2300 l0 -2300 2300 0 2300 0 0 2300 0 2300 -2300 0 -2300 0 0
-2300z m3579 1959 c101 -23 171 -103 205 -233 l13 -48 226 1 c125 1 227 0 227
-3 0 -6 -44 -74 -60 -93 -24 -29 -79 -141 -85 -173 -3 -19 -8 -51 -12 -70 -3
-19 -8 -700 -10 -1512 l-4 -1478 -837 0 -837 0 -48 98 c-82 165 -102 202 -108
199 -4 -1 -73 -65 -154 -142 -193 -182 -182 -172 -251 -230 -32 -27 -93 -79
-134 -116 -122 -107 -290 -239 -305 -239 -27 0 -45 12 -45 31 0 11 67 91 158
187 86 92 186 201 222 242 36 41 88 99 115 130 28 30 79 91 115 135 36 44 91
111 122 149 32 38 56 71 54 75 -2 3 -117 236 -255 516 -139 281 -256 517 -261
526 -5 9 -28 53 -51 98 -23 45 -45 78 -49 74 -14 -16 -176 -240 -223 -308 -26
-38 -70 -101 -98 -140 l-50 -70 5 -440 c2 -285 8 -459 16 -494 13 -60 59 -151
115 -230 l37 -51 -492 0 c-390 0 -490 3 -484 12 5 7 29 45 54 83 79 119 93
163 101 306 7 133 4 2451 -3 2549 -11 138 -24 172 -112 303 -25 38 -46 70 -46
72 0 3 418 5 928 5 l928 0 78 -157 c75 -150 79 -156 95 -138 55 67 319 272
458 358 103 63 272 147 360 179 120 43 287 59 382 37z"/>
<path d="M3320 4216 c-256 -58 -615 -276 -908 -551 -35 -33 -67 -61 -71 -63
-4 -1 -43 70 -87 158 l-79 160 -857 0 c-472 0 -858 -2 -858 -4 0 -2 16 -32 35
-66 67 -118 67 -122 76 -585 4 -231 8 -654 9 -940 1 -286 5 -509 9 -495 7 24
7 24 19 5 l11 -20 1 20 c0 19 6 20 170 17 141 -2 170 -5 170 -17 0 -8 5 -15
10 -15 6 0 10 9 10 20 0 14 7 20 23 20 12 0 32 3 44 6 14 4 23 2 23 -5 0 -6
-8 -8 -18 -4 -15 6 -16 5 -2 -12 9 -11 10 -16 3 -11 -9 5 -13 0 -13 -13 0 -12
-5 -21 -11 -21 -5 0 -7 -5 -3 -12 5 -7 3 -8 -7 -2 -22 14 -47 15 -55 2 -4 -7
-3 -8 4 -4 6 4 21 2 32 -4 19 -10 19 -13 -17 -83 -21 -40 -39 -75 -41 -79 -2
-5 1 -8 7 -8 6 0 11 6 11 14 0 8 3 16 8 18 4 2 22 26 39 53 18 28 45 64 61 80
16 17 32 43 36 59 6 25 47 87 196 301 28 39 55 78 62 88 16 23 82 112 145 194
26 35 51 59 54 55 4 -4 65 -123 136 -265 71 -141 133 -254 138 -250 4 5 5 3 1
-4 -4 -7 5 -30 19 -52 14 -23 25 -46 26 -53 1 -7 7 5 13 27 l13 39 6 -32 7
-32 360 0 c281 0 360 3 361 13 0 6 4 3 8 -7 7 -17 8 -18 14 -3 3 9 2 19 -3 22
-6 4 -10 11 -10 18 0 6 7 2 15 -9 10 -13 14 -15 15 -5 0 8 3 11 6 8 11 -10
-26 -58 -38 -51 -7 5 -9 2 -6 -8 7 -18 -25 -72 -36 -61 -4 4 -4 -1 0 -11 6
-15 4 -17 -6 -11 -8 5 -11 4 -6 -3 4 -6 -8 -33 -27 -59 -18 -26 -69 -100 -112
-163 -202 -296 -460 -619 -730 -915 -115 -126 -124 -136 -189 -206 -110 -118
-117 -127 -61 -83 27 21 65 53 83 69 19 17 41 35 51 40 9 6 30 22 46 36 17 15
68 60 115 100 232 200 543 502 720 699 52 58 97 107 100 110 5 5 104 121 154
181 15 19 60 76 99 128 l71 93 18 -22 c21 -26 24 -19 4 13 -13 20 -11 26 24
69 24 30 41 43 44 35 5 -9 7 -9 12 1 6 13 24 7 24 -9 0 -6 -4 -7 -10 -4 -5 3
-10 2 -10 -4 0 -5 5 -13 10 -16 6 -3 10 -1 10 4 0 6 20 11 46 11 41 0 46 2 41
20 -3 11 -1 18 3 15 5 -3 10 1 13 7 3 7 4 2 3 -12 -1 -14 -8 -35 -15 -47 -8
-15 -8 -23 -1 -23 6 0 13 7 17 15 5 14 8 14 26 -2 l21 -18 -18 28 c-9 16 -15
34 -12 40 3 9 5 9 5 0 1 -7 12 -24 25 -38 23 -24 22 -21 -7 39 -28 58 -34 64
-44 49 -7 -9 -13 -12 -13 -7 0 6 5 15 11 21 7 7 3 25 -15 60 l-25 50 34 54
c132 214 178 298 318 589 l36 75 0 -438 c1 -282 5 -445 11 -458 10 -18 24 -19
265 -19 l255 0 1 568 c0 312 4 725 9 917 8 386 11 404 75 514 19 33 35 62 35
65 0 3 -85 6 -189 6 l-190 0 -6 48 c-10 72 -43 157 -75 187 -55 52 -114 72
-214 73 -50 0 -116 -5 -146 -12z m-2005 -365 c5 -18 95 -114 101 -109 1 2 -1
21 -6 43 -19 79 -7 113 18 56 7 -15 28 -46 47 -67 30 -35 34 -36 35 -17 0 12
5 25 11 28 19 12 48 -26 69 -91 27 -81 82 -153 209 -277 56 -54 115 -120 133
-145 17 -26 106 -123 197 -215 l166 -169 40 5 c22 3 60 10 85 17 52 13 108 6
117 -16 3 -7 11 -14 19 -14 25 0 15 -29 -17 -45 -22 -12 -29 -22 -27 -38 2
-18 11 -23 56 -28 29 -4 65 -12 80 -17 30 -11 112 -23 112 -16 0 3 -77 159
-171 347 l-170 342 48 43 c67 61 229 182 242 182 6 0 11 4 11 8 0 5 10 14 23
20 12 6 40 23 62 37 222 139 424 118 503 -54 23 -50 26 -69 26 -166 -1 -78 -7
-136 -23 -200 -23 -95 -81 -286 -111 -370 -45 -123 -81 -216 -110 -285 -55
-129 -70 -163 -103 -228 -36 -71 -30 -75 -88 51 -18 37 -35 67 -38 67 -4 0
-31 -6 -61 -14 -93 -24 -281 -37 -440 -30 -191 9 -220 0 -274 -84 -20 -31 -39
-67 -42 -79 -6 -22 -10 -23 -135 -23 l-129 0 -25 49 c-13 27 -27 67 -31 89 -6
36 -4 41 17 47 23 7 100 59 147 99 29 26 28 36 -10 115 -35 70 -94 136 -143
161 -17 8 -42 22 -56 32 -25 17 -111 152 -160 252 -14 29 -41 61 -63 78 -30
21 -55 57 -99 141 -33 61 -72 127 -88 147 -34 41 -36 50 -8 50 19 0 19 1 -4
23 -27 25 -63 77 -53 77 4 0 29 -12 57 -26 28 -14 53 -23 55 -21 2 2 -3 21
-11 42 -20 46 -14 54 21 26 46 -36 56 -25 22 25 -34 51 -57 107 -58 142 0 27
16 29 25 3z m5 -892 c170 -340 188 -381 177 -401 -7 -13 -43 -70 -80 -126 -66
-101 -166 -265 -258 -424 -24 -43 -46 -77 -49 -78 -3 0 -4 320 -2 711 1 480 6
708 12 704 6 -4 96 -177 200 -386z m1383 -1014 c-3 -9 -8 -14 -10 -11 -3 3 -2
9 2 15 9 16 15 13 8 -4z m17 -19 c0 -2 -8 -10 -17 -17 -16 -13 -17 -12 -4 4
13 16 21 21 21 13z"/>
<path d="M2981 3753 c-74 -19 -184 -82 -341 -197 -52 -38 -109 -83 -127 -99
l-32 -30 85 -171 c47 -94 89 -178 95 -186 5 -8 14 -26 19 -40 6 -14 38 -79 72
-145 34 -66 66 -131 72 -143 10 -23 15 -24 84 -19 48 4 83 12 106 26 43 27 46
26 46 -5 0 -33 -35 -91 -59 -99 -10 -3 -29 -14 -41 -25 -13 -11 -31 -20 -41
-20 -21 0 -17 -15 23 -99 l21 -44 30 58 c45 90 133 314 188 480 97 292 125
425 115 548 -15 180 -131 258 -315 210z"/>
<path d="M1168 2617 c-2 -279 -1 -507 2 -507 3 0 20 26 38 58 36 62 83 138
181 294 l63 101 -140 281 -141 281 -3 -508z"/>
<path d="M3375 2442 c-27 -53 -87 -160 -132 -238 l-83 -140 130 -259 c72 -142
130 -257 130 -254 3 38 11 989 9 989 -2 0 -26 -44 -54 -98z"/>
<path d="M1900 1856 c0 -8 4 -17 9 -20 5 -4 7 3 4 14 -6 23 -13 26 -13 6z"/>
<path d="M2982 1839 c-10 -16 -11 -24 -2 -33 8 -8 10 -7 5 7 -4 9 -3 17 3 17
6 0 12 -6 15 -12 2 -7 8 -9 13 -5 5 4 4 11 -2 15 -6 4 -13 13 -15 20 -3 8 -9
5 -17 -9z"/>
<path d="M3200 1789 c0 -15 18 -19 23 -6 3 8 -1 14 -9 14 -8 0 -14 -4 -14 -8z"/>
<path d="M2930 1786 c0 -2 8 -10 18 -17 15 -13 16 -12 3 4 -13 16 -21 21 -21
13z"/>
<path d="M966 1733 c-6 -14 -5 -15 5 -6 7 7 10 15 7 18 -3 3 -9 -2 -12 -12z"/>
</g>
</svg>
