<?xml version="1.0" standalone="no"?>
<!DOCTYPE svg PUBLIC "-//W3C//DTD SVG 20010904//EN"
 "http://www.w3.org/TR/2001/REC-SVG-20010904/DTD/svg10.dtd">
<svg version="1.0" xmlns="http://www.w3.org/2000/svg"
 width="1080.000000pt" height="1080.000000pt" viewBox="0 0 1080.000000 1080.000000"
 preserveAspectRatio="xMidYMid meet">
<metadata>
Created by potrace 1.11, written by Peter Selinger 2001-2013
</metadata>
<g transform="translate(0.000000,1080.000000) scale(0.100000,-0.100000)"
fill="#000000" stroke="none">
<path d="M4376 10000 c-340 -29 -613 -113 -1004 -309 -886 -446 -1510 -1151
-1814 -2051 -207 -614 -260 -1330 -153 -2065 87 -598 288 -1225 576 -1795 671
-1331 1737 -2261 2855 -2493 222 -46 285 -52 574 -51 296 0 398 11 640 70 632
154 1273 562 1823 1159 353 383 521 672 597 1030 33 153 38 436 12 616 -37
249 -118 527 -256 879 -59 151 -63 166 -49 182 9 10 115 68 237 129 265 134
342 177 506 284 467 304 743 670 800 1064 19 128 8 362 -23 486 -72 284 -191
501 -381 691 -351 350 -863 503 -1322 394 -252 -59 -698 -291 -1204 -624 -870
-573 -1534 -1209 -1773 -1698 -130 -264 -155 -474 -81 -679 143 -398 374 -629
629 -629 33 0 115 13 181 29 293 72 508 58 723 -45 210 -102 326 -293 292
-485 -6 -35 -29 -102 -52 -149 -35 -71 -59 -102 -143 -186 -152 -153 -354
-276 -636 -387 -260 -103 -448 -102 -668 3 -274 130 -527 407 -756 825 -130
238 -225 481 -297 762 -162 636 -219 1460 -143 2076 91 734 344 1217 735 1401
137 65 176 71 432 68 252 -3 299 4 404 57 118 60 192 148 239 287 23 67 27 95
27 189 0 135 -17 204 -83 341 -160 331 -486 542 -940 608 -136 20 -366 27
-504 16z"/>
</g>
</svg>
